<svg width="60.904mm" height="60.904mm" version="1.1" viewBox="0 0 60.904 60.904" xmlns="http://www.w3.org/2000/svg">
 <g transform="translate(-27.026 -12.045)">
  <path d="m87.546 42.497a30.068 30.068 0 0 1-30.068 30.068 30.068 30.068 0 0 1-30.068-30.068 30.068 30.068 0 0 1 30.068-30.068 30.068 30.068 0 0 1 30.068 30.068z" fill="#0a8c76" stroke="#000" stroke-width=".768"/>
  <path transform="matrix(1.2777 0 0 1.2943 -89.46 -70.227)" d="m107.4 108.91c-1.5762-0.54929 2.8532-13.978 1.6072-15.089-1.246-1.1107-14.08 4.8273-14.806 3.3243-0.72615-1.503 11.902-7.8667 11.806-9.5332-0.0957-1.6664-13.369-6.5425-12.82-8.1187 0.54929-1.5762 13.978 2.8532 15.089 1.6072 1.1107-1.246-4.8272-14.08-3.3243-14.806 1.503-0.72615 7.8667 11.902 9.5332 11.806 1.6664-0.09572 6.5425-13.369 8.1187-12.82 1.5762 0.54929-2.8532 13.978-1.6072 15.089 1.246 1.1107 14.08-4.8273 14.806-3.3243 0.72615 1.503-11.902 7.8667-11.806 9.5332 0.0957 1.6664 13.369 6.5425 12.82 8.1187-0.54929 1.5762-13.978-2.8532-15.089-1.6072s4.8272 14.08 3.3243 14.806c-1.503 0.72615-7.8667-11.902-9.5332-11.806-1.6664 0.09572-6.5425 13.369-8.1187 12.82z" fill="#f00" stroke-width=".61698"/>
 </g>
</svg>
